<mxfile host="Electron" modified="2025-06-15T09:04:45.618Z" agent="Mozilla/5.0 (X11; Linux x86_64) AppleWebKit/537.36 (KHTML, like Gecko) draw.io/22.1.2 Chrome/114.0.5735.289 Electron/25.9.4 Safari/537.36" etag="tXklrwoCrwixaT_qNQOI" version="22.1.2" type="device">
  <diagram name="Page-1" id="LuX5daga_RqbECPkhkMp">
    <mxGraphModel dx="444" dy="388" grid="0" gridSize="10" guides="1" tooltips="1" connect="1" arrows="1" fold="1" page="1" pageScale="1" pageWidth="1169" pageHeight="827" math="1" shadow="0">
      <root>
        <mxCell id="0" />
        <mxCell id="1" parent="0" />
        <mxCell id="a8t6x2-Qu9tQ809xEnQ3-14" value="" style="whiteSpace=wrap;html=1;aspect=fixed;fillColor=none;strokeColor=#CC0000;" vertex="1" parent="1">
          <mxGeometry x="200" y="91" width="100" height="100" as="geometry" />
        </mxCell>
        <mxCell id="a8t6x2-Qu9tQ809xEnQ3-1" value="" style="endArrow=classic;html=1;rounded=0;strokeWidth=2;" edge="1" parent="1">
          <mxGeometry width="50" height="50" relative="1" as="geometry">
            <mxPoint x="200" y="190" as="sourcePoint" />
            <mxPoint x="200" y="40" as="targetPoint" />
          </mxGeometry>
        </mxCell>
        <mxCell id="a8t6x2-Qu9tQ809xEnQ3-4" value="" style="endArrow=classic;html=1;rounded=0;strokeWidth=3;" edge="1" parent="1">
          <mxGeometry width="50" height="50" relative="1" as="geometry">
            <mxPoint x="200" y="190" as="sourcePoint" />
            <mxPoint x="300" y="90" as="targetPoint" />
          </mxGeometry>
        </mxCell>
        <mxCell id="a8t6x2-Qu9tQ809xEnQ3-6" value="" style="verticalLabelPosition=bottom;verticalAlign=top;html=1;shape=mxgraph.basic.arc;startAngle=0.1297494834559487;endAngle=0.2468173254495136;aspect=fixed;strokeWidth=2;strokeColor=#CC0000;" vertex="1" parent="1">
          <mxGeometry x="120" y="110" width="160" height="160" as="geometry" />
        </mxCell>
        <mxCell id="a8t6x2-Qu9tQ809xEnQ3-7" value="" style="triangle;whiteSpace=wrap;html=1;rotation=-135;fillColor=#CC0000;strokeColor=none;" vertex="1" parent="1">
          <mxGeometry x="255" y="133" width="10" height="10" as="geometry" />
        </mxCell>
        <mxCell id="a8t6x2-Qu9tQ809xEnQ3-11" value="$$\psi$$" style="text;html=1;strokeColor=none;fillColor=none;align=center;verticalAlign=middle;whiteSpace=wrap;rounded=0;fontSize=24;fontColor=#CC0000;" vertex="1" parent="1">
          <mxGeometry x="236" y="154" width="30" height="30" as="geometry" />
        </mxCell>
        <mxCell id="a8t6x2-Qu9tQ809xEnQ3-12" value="" style="endArrow=classic;html=1;rounded=0;strokeWidth=2;" edge="1" parent="1">
          <mxGeometry width="50" height="50" relative="1" as="geometry">
            <mxPoint x="50" y="190" as="sourcePoint" />
            <mxPoint x="350" y="191" as="targetPoint" />
          </mxGeometry>
        </mxCell>
        <mxCell id="a8t6x2-Qu9tQ809xEnQ3-15" value="Real" style="text;html=1;strokeColor=none;fillColor=none;align=center;verticalAlign=middle;whiteSpace=wrap;rounded=0;fontSize=16;" vertex="1" parent="1">
          <mxGeometry x="350" y="182.5" width="40" height="15" as="geometry" />
        </mxCell>
        <mxCell id="a8t6x2-Qu9tQ809xEnQ3-16" value="Imaginary" style="text;html=1;strokeColor=none;fillColor=none;align=center;verticalAlign=middle;whiteSpace=wrap;rounded=0;fontSize=16;" vertex="1" parent="1">
          <mxGeometry x="170" y="18" width="60" height="20" as="geometry" />
        </mxCell>
        <mxCell id="a8t6x2-Qu9tQ809xEnQ3-17" value="$$\cos(\psi)$$" style="text;html=1;strokeColor=none;fillColor=none;align=center;verticalAlign=middle;whiteSpace=wrap;rounded=0;fontSize=20;fontColor=#CC0000;" vertex="1" parent="1">
          <mxGeometry x="303" y="126" width="70" height="30" as="geometry" />
        </mxCell>
        <mxCell id="a8t6x2-Qu9tQ809xEnQ3-18" value="$$\sin(\psi)$$" style="text;html=1;strokeColor=none;fillColor=none;align=center;verticalAlign=middle;whiteSpace=wrap;rounded=0;fontSize=20;fontColor=#CC0000;" vertex="1" parent="1">
          <mxGeometry x="215" y="59" width="70" height="30" as="geometry" />
        </mxCell>
        <mxCell id="a8t6x2-Qu9tQ809xEnQ3-20" value="" style="endArrow=classic;html=1;rounded=0;strokeWidth=2;" edge="1" parent="1">
          <mxGeometry width="50" height="50" relative="1" as="geometry">
            <mxPoint x="590" y="190" as="sourcePoint" />
            <mxPoint x="590" y="40" as="targetPoint" />
          </mxGeometry>
        </mxCell>
        <mxCell id="a8t6x2-Qu9tQ809xEnQ3-21" value="" style="endArrow=classic;html=1;rounded=0;strokeWidth=3;" edge="1" parent="1">
          <mxGeometry width="50" height="50" relative="1" as="geometry">
            <mxPoint x="590" y="190" as="sourcePoint" />
            <mxPoint x="690" y="90" as="targetPoint" />
          </mxGeometry>
        </mxCell>
        <mxCell id="a8t6x2-Qu9tQ809xEnQ3-22" value="" style="verticalLabelPosition=bottom;verticalAlign=top;html=1;shape=mxgraph.basic.arc;startAngle=0.1297494834559487;endAngle=0.2468173254495136;aspect=fixed;strokeWidth=2;strokeColor=#CC0000;" vertex="1" parent="1">
          <mxGeometry x="510" y="110" width="160" height="160" as="geometry" />
        </mxCell>
        <mxCell id="a8t6x2-Qu9tQ809xEnQ3-23" value="" style="triangle;whiteSpace=wrap;html=1;rotation=-135;fillColor=#CC0000;strokeColor=none;" vertex="1" parent="1">
          <mxGeometry x="645" y="132" width="10" height="10" as="geometry" />
        </mxCell>
        <mxCell id="a8t6x2-Qu9tQ809xEnQ3-24" value="$$\psi$$" style="text;html=1;strokeColor=none;fillColor=none;align=center;verticalAlign=middle;whiteSpace=wrap;rounded=0;fontSize=24;fontColor=#CC0000;" vertex="1" parent="1">
          <mxGeometry x="626" y="154" width="30" height="30" as="geometry" />
        </mxCell>
        <mxCell id="a8t6x2-Qu9tQ809xEnQ3-25" value="" style="endArrow=classic;html=1;rounded=0;strokeWidth=2;" edge="1" parent="1">
          <mxGeometry width="50" height="50" relative="1" as="geometry">
            <mxPoint x="440" y="190" as="sourcePoint" />
            <mxPoint x="740" y="191" as="targetPoint" />
          </mxGeometry>
        </mxCell>
        <mxCell id="a8t6x2-Qu9tQ809xEnQ3-26" value="Real" style="text;html=1;strokeColor=none;fillColor=none;align=center;verticalAlign=middle;whiteSpace=wrap;rounded=0;fontSize=16;" vertex="1" parent="1">
          <mxGeometry x="740" y="182.5" width="40" height="15" as="geometry" />
        </mxCell>
        <mxCell id="a8t6x2-Qu9tQ809xEnQ3-27" value="Imaginary" style="text;html=1;strokeColor=none;fillColor=none;align=center;verticalAlign=middle;whiteSpace=wrap;rounded=0;fontSize=16;" vertex="1" parent="1">
          <mxGeometry x="560" y="18" width="60" height="20" as="geometry" />
        </mxCell>
        <mxCell id="a8t6x2-Qu9tQ809xEnQ3-30" value="" style="endArrow=classic;html=1;rounded=0;strokeWidth=3;" edge="1" parent="1">
          <mxGeometry width="50" height="50" relative="1" as="geometry">
            <mxPoint x="590" y="190" as="sourcePoint" />
            <mxPoint x="520" y="80" as="targetPoint" />
          </mxGeometry>
        </mxCell>
        <mxCell id="a8t6x2-Qu9tQ809xEnQ3-32" value="" style="verticalLabelPosition=bottom;verticalAlign=top;html=1;shape=mxgraph.basic.arc;startAngle=0.9113308993890745;endAngle=0.12161423545796861;aspect=fixed;strokeWidth=2;strokeColor=#CC0000;" vertex="1" parent="1">
          <mxGeometry x="510" y="110" width="160" height="160" as="geometry" />
        </mxCell>
        <mxCell id="a8t6x2-Qu9tQ809xEnQ3-33" value="" style="triangle;whiteSpace=wrap;html=1;rotation=-210;fillColor=#CC0000;strokeColor=none;" vertex="1" parent="1">
          <mxGeometry x="546" y="116" width="10" height="10" as="geometry" />
        </mxCell>
        <mxCell id="a8t6x2-Qu9tQ809xEnQ3-36" value="$$\phi$$" style="text;html=1;strokeColor=none;fillColor=none;align=center;verticalAlign=middle;whiteSpace=wrap;rounded=0;fontSize=24;fontColor=#CC0000;" vertex="1" parent="1">
          <mxGeometry x="584.5" y="122" width="30" height="30" as="geometry" />
        </mxCell>
      </root>
    </mxGraphModel>
  </diagram>
</mxfile>
